<svg width="40" height="40" viewBox="0 0 40 40" fill="none" xmlns="http://www.w3.org/2000/svg">
<g id="clipboard-check">
<path id="Icon" d="M15.7071 22.6262C15.3166 22.2357 14.6834 22.2357 14.2929 22.6262C13.9024 23.0168 13.9024 23.6499 14.2929 24.0404L15.7071 22.6262ZM18.3333 26.6667L17.6262 27.3738C18.0167 27.7643 18.6499 27.7643 19.0404 27.3738L18.3333 26.6667ZM25.7071 20.7071C26.0976 20.3166 26.0976 19.6834 25.7071 19.2929C25.3166 18.9024 24.6834 18.9024 24.2929 19.2929L25.7071 20.7071ZM30.6667 11.6667V31.6667H32.6667V11.6667H30.6667ZM28.3333 34H11.6667V36H28.3333V34ZM9.33333 31.6667V11.6667H7.33333V31.6667H9.33333ZM11.6667 9.33333H15V7.33333H11.6667V9.33333ZM25 9.33333H28.3333V7.33333H25V9.33333ZM11.6667 34C10.378 34 9.33333 32.9553 9.33333 31.6667H7.33333C7.33333 34.0599 9.27343 36 11.6667 36V34ZM30.6667 31.6667C30.6667 32.9553 29.622 34 28.3333 34V36C30.7266 36 32.6667 34.0599 32.6667 31.6667H30.6667ZM32.6667 11.6667C32.6667 9.27343 30.7266 7.33333 28.3333 7.33333V9.33333C29.622 9.33333 30.6667 10.378 30.6667 11.6667H32.6667ZM9.33333 11.6667C9.33333 10.378 10.378 9.33333 11.6667 9.33333V7.33333C9.27343 7.33333 7.33333 9.27343 7.33333 11.6667H9.33333ZM14.2929 24.0404L17.6262 27.3738L19.0404 25.9596L15.7071 22.6262L14.2929 24.0404ZM19.0404 27.3738L25.7071 20.7071L24.2929 19.2929L17.6262 25.9596L19.0404 27.3738ZM18.3333 6H21.6667V4H18.3333V6ZM21.6667 10.6667H18.3333V12.6667H21.6667V10.6667ZM18.3333 10.6667C17.0447 10.6667 16 9.622 16 8.33333H14C14 10.7266 15.9401 12.6667 18.3333 12.6667V10.6667ZM24 8.33333C24 9.622 22.9553 10.6667 21.6667 10.6667V12.6667C24.0599 12.6667 26 10.7266 26 8.33333H24ZM21.6667 6C22.9553 6 24 7.04467 24 8.33333H26C26 5.9401 24.0599 4 21.6667 4V6ZM18.3333 4C15.9401 4 14 5.9401 14 8.33333H16C16 7.04467 17.0447 6 18.3333 6V4Z" fill="#08C6AB"/>
</g>
</svg>
