<svg width="40" height="40" viewBox="0 0 40 40" fill="none" xmlns="http://www.w3.org/2000/svg">
<g id="clipboard-list">
<path id="Icon" d="M15 8.33333H11.6666C9.8257 8.33333 8.33331 9.82572 8.33331 11.6667V31.6667C8.33331 33.5076 9.8257 35 11.6666 35H28.3333C30.1743 35 31.6666 33.5076 31.6666 31.6667V11.6667C31.6666 9.82572 30.1743 8.33333 28.3333 8.33333H25M15 8.33333C15 10.1743 16.4924 11.6667 18.3333 11.6667H21.6666C23.5076 11.6667 25 10.1743 25 8.33333M15 8.33333C15 6.49238 16.4924 5 18.3333 5H21.6666C23.5076 5 25 6.49238 25 8.33333M20 20H25M20 26.6667H25M15 20H15.0166M15 26.6667H15.0166" stroke="#08C6AB" stroke-width="2" stroke-linecap="round"/>
</g>
</svg>
