<svg width="17" height="17" viewBox="0 0 17 17" fill="none" xmlns="http://www.w3.org/2000/svg">
<g id="dots-horizontal">
<path id="Icon" d="M3.54168 8.50001H3.54876M8.50001 8.50001H8.50709M13.4583 8.50001H13.4654M4.25001 8.50001C4.25001 8.89121 3.93288 9.20834 3.54168 9.20834C3.15048 9.20834 2.83334 8.89121 2.83334 8.50001C2.83334 8.1088 3.15048 7.79167 3.54168 7.79167C3.93288 7.79167 4.25001 8.1088 4.25001 8.50001ZM9.20834 8.50001C9.20834 8.89121 8.89121 9.20834 8.50001 9.20834C8.10881 9.20834 7.79168 8.89121 7.79168 8.50001C7.79168 8.1088 8.10881 7.79167 8.50001 7.79167C8.89121 7.79167 9.20834 8.1088 9.20834 8.50001ZM14.1667 8.50001C14.1667 8.89121 13.8495 9.20834 13.4583 9.20834C13.0671 9.20834 12.75 8.89121 12.75 8.50001C12.75 8.1088 13.0671 7.79167 13.4583 7.79167C13.8495 7.79167 14.1667 8.1088 14.1667 8.50001Z" stroke="#212B38" stroke-opacity="0.5" stroke-width="2" stroke-linecap="round" stroke-linejoin="round"/>
</g>
</svg>
